<?xml version="1.0" standalone="no"?>
<!DOCTYPE svg PUBLIC "-//W3C//DTD SVG 20010904//EN"
 "http://www.w3.org/TR/2001/REC-SVG-20010904/DTD/svg10.dtd">
<svg version="1.0" xmlns="http://www.w3.org/2000/svg"
 width="1229.000000pt" height="1024.000000pt" viewBox="0 0 1229.000000 1024.000000"
 preserveAspectRatio="xMidYMid meet">

<g transform="translate(0.000000,1024.000000) scale(0.100000,-0.100000)"
fill="#000000" stroke="none">
<path d="M2861 9708 c-14 -36 -2241 -6326 -2267 -6401 l-23 -67 817 2 816 3
198 570 c108 314 197 571 198 573 0 1 562 2 1249 2 l1248 0 122 -353 c67 -193
157 -452 199 -574 l77 -223 817 0 818 0 -11 27 c-6 16 -521 1468 -1144 3228
-623 1760 -1137 3208 -1140 3218 -7 16 -63 17 -986 17 l-979 0 -9 -22z m1389
-2869 c217 -628 397 -1145 398 -1150 2 -5 -347 -9 -798 -9 -637 0 -801 3 -798
13 3 6 182 524 398 1150 216 625 396 1137 399 1137 3 0 184 -514 401 -1141z"/>
<path d="M681 1277 c-96 -276 -176 -508 -179 -514 -3 -10 25 -13 121 -13 l126
0 33 103 33 102 167 3 c193 3 172 15 208 -120 l23 -88 128 0 c88 0 129 4 129
11 0 9 -216 696 -296 942 l-26 77 -146 0 -147 0 -174 -503z m373 64 c25 -95
46 -177 46 -182 0 -5 -51 -9 -114 -9 l-113 0 60 195 c34 107 64 190 68 183 4
-7 28 -91 53 -187z"/>
<path d="M2440 1265 l0 -515 110 0 110 0 0 515 0 515 -110 0 -110 0 0 -515z"/>
<path d="M4682 1368 l3 -413 30 -55 c52 -94 151 -150 302 -171 190 -26 390 49
453 171 34 66 40 144 40 517 l0 363 -120 0 -120 0 0 -377 c0 -357 -1 -380 -20
-410 -29 -48 -73 -67 -155 -68 -85 0 -139 24 -167 75 -17 32 -18 64 -18 407
l0 373 -115 0 -116 0 3 -412z"/>
<path d="M6610 1690 l0 -90 110 0 110 0 0 90 0 90 -110 0 -110 0 0 -90z"/>
<path d="M10100 1690 l0 -90 110 0 110 0 0 90 0 90 -110 0 -110 0 0 -90z"/>
<path d="M2900 1610 l0 -120 -55 0 -56 0 3 -77 3 -78 52 -3 52 -3 3 -237 c3
-226 4 -239 26 -273 33 -54 79 -69 212 -69 l110 0 0 80 0 80 -49 0 c-81 0 -81
1 -81 226 l0 194 65 0 65 0 0 80 0 80 -65 0 -65 0 0 120 0 120 -110 0 -110 0
0 -120z"/>
<path d="M10577 1724 c-4 -4 -7 -58 -7 -121 l0 -113 -50 0 -50 0 0 -80 0 -80
49 0 48 0 5 -229 c6 -252 13 -283 71 -325 25 -18 46 -21 158 -25 l129 -3 0 81
0 81 -46 0 c-86 0 -84 -6 -84 220 l0 200 65 0 65 0 0 80 0 80 -65 0 -64 0 -3
118 -3 117 -106 3 c-58 1 -108 -1 -112 -4z"/>
<path d="M1805 1510 c-127 -27 -194 -94 -220 -217 l-7 -33 100 0 100 0 13 31
c15 37 60 59 119 59 83 0 135 -42 111 -89 -11 -20 -15 -21 -201 -56 -104 -20
-201 -65 -235 -109 -39 -52 -52 -128 -32 -196 31 -104 112 -161 243 -168 89
-5 137 6 196 44 46 29 46 29 50 2 3 -22 7 -23 116 -26 91 -2 112 0 105 10 -4
7 -10 137 -13 288 -5 271 -5 276 -30 325 -28 54 -94 106 -158 125 -51 15 -208
21 -257 10z m225 -469 c0 -66 -19 -100 -73 -128 -41 -21 -129 -21 -161 0 -49
33 -46 96 7 124 25 13 176 56 220 62 4 1 7 -25 7 -58z"/>
<path d="M3651 1505 c-124 -27 -227 -114 -269 -228 -77 -206 7 -426 196 -515
51 -24 68 -27 172 -27 110 0 119 2 181 32 161 80 242 242 211 425 -30 171
-142 286 -312 318 -67 13 -100 12 -179 -5z m197 -192 c51 -38 76 -98 76 -188
1 -67 -3 -89 -24 -130 -63 -124 -240 -124 -300 0 -40 83 -26 238 28 299 44 49
164 60 220 19z"/>
<path d="M6056 1506 c-21 -8 -55 -28 -76 -45 -22 -17 -41 -31 -44 -31 -3 0 -6
16 -6 35 l0 35 -105 0 -105 0 0 -375 0 -375 110 0 109 0 3 256 3 256 37 34
c64 58 153 43 184 -32 11 -25 14 -91 14 -274 l0 -240 110 0 110 0 0 268 c0
295 -6 336 -59 409 -17 23 -49 50 -76 63 -58 28 -156 36 -209 16z"/>
<path d="M8075 1507 c-183 -48 -285 -187 -285 -387 0 -185 97 -329 254 -375
65 -20 189 -19 256 1 110 33 196 110 224 202 7 22 7 22 -102 22 -98 0 -111 -2
-128 -21 -34 -38 -73 -52 -131 -47 -78 7 -129 52 -148 131 l-7 27 266 0 266 0
0 48 c0 124 -66 277 -144 337 -78 60 -222 87 -321 62z m160 -171 c37 -16 75
-68 75 -103 0 -23 -1 -23 -151 -23 -134 0 -150 2 -145 16 3 9 6 19 6 24 0 5
12 23 27 41 48 56 119 73 188 45z"/>
<path d="M9095 1515 c-5 -2 -27 -6 -47 -10 -45 -7 -92 -44 -118 -94 l-20 -36
2 60 2 60 -107 3 -107 3 0 -376 0 -375 109 0 109 0 4 208 c4 196 5 211 28 257
35 69 66 89 150 93 l70 4 0 104 0 104 -32 -1 c-18 0 -37 -2 -43 -4z"/>
<path d="M9515 1509 c-81 -13 -155 -57 -189 -112 -56 -91 -43 -218 28 -272 41
-31 92 -49 229 -82 125 -29 164 -53 153 -96 -10 -41 -57 -60 -134 -55 -58 4
-68 8 -93 36 -16 18 -29 39 -29 47 0 12 -19 15 -106 15 l-106 0 7 -37 c18 -98
89 -172 198 -205 57 -17 87 -20 170 -16 148 7 232 48 281 137 43 79 32 204
-22 264 -30 34 -84 54 -225 86 -160 36 -177 43 -177 76 0 36 43 60 106 59 58
0 99 -21 116 -60 11 -23 15 -24 115 -24 l103 0 -6 28 c-28 118 -106 187 -239
211 -66 12 -107 12 -180 0z"/>
<path d="M6610 1125 l0 -375 110 0 110 0 0 375 0 375 -110 0 -110 0 0 -375z"/>
<path d="M7012 1383 c23 -65 83 -233 133 -373 l92 -255 108 0 107 0 124 365
c68 201 124 369 124 373 0 4 -53 6 -117 5 l-117 -3 -47 -185 c-26 -102 -53
-214 -61 -249 l-13 -64 -71 249 -70 249 -117 3 -117 3 42 -118z"/>
<path d="M10100 1125 l0 -375 110 0 110 0 0 375 0 375 -110 0 -110 0 0 -375z"/>
<path d="M11040 1491 c0 -5 61 -163 136 -352 113 -288 134 -350 130 -383 -7
-56 -26 -70 -104 -76 l-67 -5 -3 -83 -3 -82 103 0 c182 0 222 26 282 182 43
112 276 788 276 800 0 5 -51 7 -112 6 l-113 -3 -58 -205 c-31 -113 -62 -225
-68 -250 l-11 -45 -39 130 c-22 72 -57 185 -80 253 l-41 122 -114 0 c-63 0
-114 -4 -114 -9z"/>
</g>
</svg>
