<?xml version="1.0" standalone="no"?>
<!DOCTYPE svg PUBLIC "-//W3C//DTD SVG 20010904//EN"
 "http://www.w3.org/TR/2001/REC-SVG-20010904/DTD/svg10.dtd">
<svg version="1.0" xmlns="http://www.w3.org/2000/svg"
 width="860.000000pt" height="900.000000pt" viewBox="0 0 860.000000 900.000000"
 preserveAspectRatio="xMidYMid meet">

<g transform="translate(0.000000,900.000000) scale(0.100000,-0.100000)"
fill="#000000" stroke="none">
<path d="M4020 8584 c-19 -2 -84 -9 -145 -15 -1112 -110 -2149 -717 -2825
-1653 -163 -226 -358 -583 -459 -841 -576 -1464 -251 -3118 832 -4241 332
-345 681 -602 1103 -813 797 -398 1694 -515 2580 -336 1488 301 2682 1435
3064 2910 288 1110 87 2282 -554 3235 -589 874 -1487 1473 -2531 1686 -250 51
-399 65 -725 69 -168 2 -321 1 -340 -1z m672 -210 c458 -45 874 -165 1298
-375 210 -105 356 -192 532 -319 783 -567 1325 -1408 1507 -2340 57 -293 66
-396 66 -735 0 -324 -6 -406 -51 -663 -269 -1569 -1522 -2818 -3094 -3086
-243 -41 -361 -50 -645 -50 -274 0 -389 8 -615 45 -800 131 -1539 517 -2106
1101 -276 285 -491 586 -668 938 -208 411 -331 825 -388 1305 -20 170 -17 675
5 850 148 1160 780 2157 1764 2776 146 92 448 245 603 306 582 228 1167 308
1792 247z"/>
<path d="M4085 8259 c-77 -5 -183 -14 -235 -21 l-95 -13 -3 -241 -2 -241 -63
-12 c-104 -21 -287 -69 -381 -101 -50 -16 -91 -30 -92 -30 -1 0 -56 92 -121
205 -65 113 -123 205 -130 205 -32 0 -368 -162 -519 -251 -107 -63 -298 -191
-376 -253 l-57 -46 119 -207 120 -207 -100 -94 c-54 -51 -143 -139 -197 -196
l-98 -104 -205 119 -205 119 -32 -35 c-48 -55 -174 -238 -247 -360 -116 -192
-285 -543 -272 -564 3 -4 93 -59 201 -121 108 -62 197 -116 200 -120 2 -3 -11
-54 -30 -113 -33 -105 -73 -257 -95 -369 l-11 -58 -239 0 c-219 0 -239 -1
-244 -17 -42 -143 -42 -927 0 -1075 5 -17 25 -18 244 -18 l239 0 11 -57 c21
-105 61 -256 97 -367 28 -88 32 -110 21 -117 -7 -5 -100 -59 -205 -120 -106
-61 -193 -114 -193 -119 0 -23 118 -276 193 -415 104 -191 335 -535 359 -535
5 0 99 52 209 116 110 63 204 114 208 112 4 -2 50 -51 103 -109 53 -58 134
-139 180 -179 46 -41 89 -79 96 -86 11 -9 -9 -50 -107 -220 l-120 -209 27 -22
c50 -42 236 -171 336 -234 197 -123 581 -308 600 -289 5 5 59 96 121 202 98
171 114 193 136 192 13 -1 83 -20 156 -42 73 -23 183 -52 245 -65 l113 -23 3
-242 c1 -133 5 -242 8 -242 3 0 63 -8 132 -17 177 -24 655 -24 834 0 69 9 129
17 132 17 3 0 6 108 6 240 0 184 3 242 13 244 6 3 67 16 135 31 67 14 179 44
248 66 69 22 131 38 137 36 7 -3 63 -94 126 -203 63 -110 115 -200 116 -202 4
-5 212 86 305 133 191 96 454 260 596 372 l62 48 -119 205 c-65 113 -117 208
-116 211 1 4 52 52 112 107 61 55 146 141 190 191 44 50 83 91 87 91 3 0 96
-52 205 -115 110 -63 204 -115 209 -115 29 1 278 380 388 591 62 119 166 346
166 362 0 2 -92 57 -205 122 -113 65 -205 120 -205 123 0 3 14 48 31 101 25
78 81 296 105 408 l4 23 239 0 239 0 6 33 c43 240 43 832 0 1050 l-6 27 -239
0 -239 0 -4 23 c-28 136 -63 275 -98 384 -23 73 -39 134 -37 136 2 2 87 51
189 110 102 58 193 112 203 120 18 12 15 20 -42 152 -106 242 -275 531 -432
736 l-61 80 -61 -35 c-34 -19 -127 -72 -206 -118 l-144 -83 -198 198 -198 198
115 200 c64 110 114 205 111 212 -7 19 -253 194 -379 270 -179 107 -525 277
-566 277 -5 0 -59 -87 -121 -192 -61 -106 -114 -199 -119 -206 -6 -9 -25 -6
-83 13 -87 30 -307 89 -396 106 l-63 12 -2 241 -3 241 -90 12 c-98 13 -423 34
-495 32 -25 -1 -108 -6 -185 -10z m389 -325 l46 -7 0 -238 0 -238 43 -5 c361
-46 589 -104 857 -217 90 -38 117 -46 126 -36 6 6 60 98 119 202 60 105 110
192 112 195 7 8 341 -178 376 -209 4 -4 -47 -101 -113 -216 -66 -114 -119
-209 -118 -210 262 -185 498 -413 666 -642 37 -50 71 -92 76 -92 5 -1 99 51
208 114 110 63 203 115 206 115 13 0 222 -353 222 -374 0 -2 -92 -56 -205
-121 -113 -64 -205 -121 -205 -126 0 -5 20 -55 44 -112 54 -127 107 -287 146
-440 29 -117 70 -362 70 -424 l0 -33 245 0 245 0 0 -220 0 -220 -244 0 -243 0
-8 -82 c-22 -257 -118 -618 -230 -864 l-32 -71 203 -117 c112 -65 206 -121
208 -125 6 -9 -102 -207 -170 -312 l-44 -68 -182 105 c-101 58 -193 112 -205
120 -12 8 -24 14 -26 14 -2 0 -43 -51 -90 -114 -149 -196 -371 -415 -579 -570
l-78 -58 25 -42 c158 -271 213 -371 209 -378 -6 -9 -192 -121 -296 -177 l-77
-42 -39 68 c-21 37 -76 132 -121 210 l-82 142 -62 -28 c-263 -117 -561 -199
-849 -232 l-108 -13 0 -243 0 -243 -217 2 -218 3 -3 241 -2 242 -68 6 c-274
28 -597 112 -844 221 l-98 43 -54 -91 c-29 -51 -84 -145 -121 -210 l-67 -118
-97 52 c-113 62 -268 156 -276 169 -3 5 1 20 9 32 8 13 62 105 119 205 l105
181 -116 89 c-195 147 -443 400 -578 589 -26 36 -50 64 -53 62 -4 -2 -95 -54
-203 -115 -107 -62 -200 -113 -206 -113 -19 0 -234 363 -221 374 2 2 90 52
194 111 105 60 196 114 204 121 11 10 5 32 -37 131 -111 260 -194 593 -214
853 l-3 35 -241 3 -241 2 -7 110 c-3 61 -3 160 0 220 l7 110 244 0 243 0 0 43
c0 66 37 288 71 424 35 143 82 283 146 437 37 88 43 110 32 117 -8 5 -101 59
-207 120 -105 61 -192 114 -192 117 0 21 207 372 220 372 4 0 97 -52 207 -115
109 -63 201 -115 205 -115 4 0 38 42 77 94 166 221 364 416 592 586 l77 57
-115 199 c-63 109 -117 204 -120 210 -5 13 120 93 270 174 83 44 101 50 111
39 7 -8 62 -99 121 -204 60 -104 110 -192 111 -194 2 -1 56 19 121 47 250 106
535 182 778 207 33 3 72 9 88 11 l27 6 0 238 0 239 38 4 c65 7 308 7 356 1z"/>
<path d="M4324 7199 l-29 -31 28 -23 c30 -27 44 -25 69 9 16 22 16 24 -11 50
l-27 26 -30 -31z"/>
<path d="M3809 7148 c-13 -18 -18 -19 -39 -8 -21 11 -26 10 -42 -10 -24 -30
-23 -37 12 -55 28 -14 30 -14 40 6 11 20 22 21 60 5 10 -4 21 3 33 23 l18 30
-30 16 c-36 18 -33 19 -52 -7z"/>
<path d="M4335 7032 l-27 -41 17 -46 c10 -25 16 -47 14 -49 -2 -2 -32 -6 -66
-8 -58 -4 -77 2 -53 17 6 3 10 22 10 41 0 52 -36 84 -94 84 -65 0 -95 -15
-111 -55 -23 -53 -20 -60 27 -60 36 0 43 -3 43 -20 0 -18 -10 -21 -92 -30
l-92 -11 -17 46 c-17 44 -60 120 -68 120 -3 0 -12 -20 -21 -44 -17 -44 -17
-44 11 -86 29 -44 24 -59 -21 -60 -11 -1 -54 -13 -95 -29 l-75 -27 -3 -48 -3
-47 64 7 c42 4 67 3 71 -4 10 -16 -61 -59 -144 -88 -126 -44 -170 -18 -180
106 -6 61 -7 63 -18 37 -7 -16 -12 -55 -12 -88 0 -157 114 -211 269 -129 32
17 77 50 101 72 39 38 42 43 38 89 l-3 48 39 7 c21 3 47 15 58 26 15 15 22 17
33 8 22 -18 159 -2 189 21 21 17 25 17 37 3 10 -13 29 -14 113 -9 63 5 106 12
115 21 12 11 16 11 26 -3 7 -9 34 -20 61 -24 27 -4 138 -23 248 -44 l199 -36
29 28 c59 56 73 114 42 180 -39 81 -98 80 -261 -1 -110 -56 -150 -62 -138 -22
11 35 23 96 18 96 -18 0 -82 -54 -87 -74 -6 -23 -12 -26 -49 -26 -23 0 -47 4
-53 8 -5 4 -16 33 -23 66 -7 32 -19 72 -26 89 l-13 30 -27 -41z m575 -152 c20
-20 37 -67 27 -76 -4 -5 -158 20 -201 33 -18 5 -18 6 -1 15 28 16 118 47 138
48 9 0 26 -9 37 -20z"/>
<path d="M5476 6927 c-31 -17 -43 -33 -59 -77 -11 -30 -40 -106 -63 -168 -34
-89 -42 -118 -34 -133 6 -10 15 -19 19 -19 5 0 50 -27 100 -60 61 -40 102 -60
122 -60 18 0 28 -4 24 -10 -8 -14 54 -74 95 -91 16 -8 30 -19 30 -24 0 -14 63
-75 77 -75 7 0 14 -8 17 -18 8 -23 90 -92 110 -92 9 0 16 -8 16 -17 1 -10 30
-53 66 -96 l65 -77 37 19 c47 24 113 95 142 151 l22 43 -32 -7 c-18 -3 -41 -6
-51 -6 -13 0 -27 -15 -41 -45 -12 -25 -25 -45 -28 -45 -4 0 -31 27 -60 61
l-53 61 47 47 c25 26 46 50 46 53 0 4 -24 5 -52 1 -36 -3 -58 -11 -67 -24 -17
-23 -29 -24 -53 -2 -18 16 -17 18 24 60 l42 43 -46 0 c-28 0 -50 -6 -58 -15
-16 -20 -44 -19 -61 1 -11 14 -6 22 36 60 l50 43 -48 1 c-34 0 -57 -6 -73 -19
l-25 -20 -50 37 c-43 31 -49 41 -45 63 3 14 -1 71 -9 125 -21 143 -25 132 43
123 31 -5 86 -17 122 -28 l65 -21 34 34 c32 32 33 34 14 44 -35 19 -177 52
-248 58 l-70 6 -34 -36 -35 -36 16 -118 c9 -64 15 -118 14 -119 -6 -6 -166
111 -166 121 0 7 25 73 56 147 79 189 75 179 61 179 -6 0 -30 -10 -51 -23z"/>
<path d="M5148 6883 c-19 -21 -34 -43 -31 -50 2 -6 -7 -19 -22 -29 -29 -19
-75 -91 -75 -118 0 -22 53 -53 113 -66 59 -12 100 4 148 58 28 31 30 40 25 76
-9 52 -48 119 -85 145 -16 12 -31 21 -33 21 -2 0 -20 -17 -40 -37z m50 -131
l23 -42 -39 0 c-23 0 -49 7 -62 18 l-21 17 21 28 c29 37 50 31 78 -21z"/>
<path d="M2947 6844 c-7 -37 -2 -44 32 -44 23 0 30 5 34 28 6 32 8 30 -30 38
-27 5 -31 3 -36 -22z"/>
<path d="M5706 6851 c-4 -6 5 -13 21 -17 15 -3 66 -16 113 -29 72 -20 87 -22
99 -10 12 11 2 17 -60 36 -89 27 -164 35 -173 20z"/>
<path d="M3028 6798 c-2 -18 -9 -23 -33 -22 -33 1 -45 -10 -45 -42 0 -39 67
-49 72 -11 2 18 9 22 35 22 28 0 33 4 39 29 7 31 -6 46 -43 46 -15 0 -23 -7
-25 -22z"/>
<path d="M3194 6711 c-9 -42 -8 -52 9 -72 19 -23 18 -24 -3 -41 -12 -10 -26
-18 -31 -18 -5 0 -20 23 -35 52 -28 56 -36 54 -49 -13 -4 -23 -3 -39 4 -43 18
-12 12 -45 -10 -56 -25 -14 -20 -18 -54 50 l-28 55 -13 -49 c-8 -32 -10 -56
-3 -67 16 -30 10 -46 -22 -60 -31 -12 -46 -10 -131 18 -15 4 -18 -1 -18 -33 0
-51 7 -60 53 -68 32 -6 41 -13 54 -44 20 -47 10 -145 -21 -207 -13 -25 -21
-45 -17 -45 10 0 75 41 99 63 28 26 30 96 3 166 l-18 49 26 5 c15 3 38 17 51
30 14 13 37 27 51 30 14 4 37 17 51 29 14 13 56 39 93 58 37 19 69 38 72 43
12 19 -75 217 -96 217 -4 0 -12 -22 -17 -49z"/>
<path d="M4239 6580 c-45 -24 -109 -94 -109 -120 0 -13 13 -26 38 -39 43 -22
86 -62 110 -103 9 -15 19 -28 23 -28 4 0 23 22 43 48 21 29 55 59 85 76 29 15
51 34 51 43 0 26 -49 83 -98 114 -53 34 -92 36 -143 9z"/>
<path d="M6098 6503 c-12 -3 -18 -14 -18 -34 0 -26 4 -29 30 -29 28 0 30 3 30
35 0 35 -5 38 -42 28z"/>
<path d="M6003 6473 c-24 -5 -27 -13 -17 -50 5 -17 14 -23 35 -23 26 0 29 -4
29 -31 0 -28 2 -30 33 -27 29 3 32 6 32 38 0 32 -2 35 -26 32 -23 -2 -28 2
-33 33 -4 19 -12 34 -19 34 -7 -1 -22 -4 -34 -6z"/>
<path d="M3911 6417 c-19 -6 -36 -17 -38 -23 -2 -7 17 -24 43 -39 53 -31 157
-131 223 -214 73 -94 119 -203 152 -366 l12 -60 9 40 c31 134 52 203 79 261
55 115 203 280 305 340 25 15 43 31 41 38 -8 25 -79 38 -142 27 -97 -17 -184
-90 -276 -230 l-15 -24 -47 70 c-95 143 -241 219 -346 180z"/>
<path d="M2620 6388 c0 -34 22 -88 36 -88 8 0 28 -7 45 -15 l30 -16 -21 -26
c-11 -14 -39 -46 -61 -70 l-41 -45 -27 25 c-76 72 -161 59 -161 -23 0 -46 31
-132 55 -154 l23 -20 -69 -103 c-63 -93 -91 -123 -117 -123 -5 0 -26 11 -47
26 l-37 25 19 -33 c38 -66 108 -93 169 -66 27 13 194 249 209 297 7 24 33 55
148 176 37 39 67 76 67 82 0 23 -82 102 -138 131 -65 35 -82 39 -82 20z m-82
-284 c26 -18 28 -31 5 -56 -23 -26 -40 -22 -52 12 -18 54 3 75 47 44z"/>
<path d="M3652 6341 c-7 -4 6 -34 34 -81 105 -173 199 -397 253 -600 68 -255
64 -183 68 -1317 l4 -1033 110 0 109 0 0 1068 c0 636 -4 1103 -10 1157 -32
291 -113 472 -289 645 -103 102 -244 183 -279 161z"/>
<path d="M4919 6340 c-58 -16 -154 -77 -221 -139 -180 -167 -269 -349 -303
-621 -18 -152 -19 -205 -17 -1318 l2 -953 108 3 107 3 5 1030 c6 1111 4 1065
60 1286 51 197 161 464 258 622 54 87 54 102 1 87z"/>
<path d="M6270 6221 c0 -36 2 -39 33 -44 42 -6 47 -2 47 38 0 35 -13 45 -56
45 -21 0 -24 -4 -24 -39z"/>
<path d="M2298 6243 c-19 -5 -22 -22 -12 -61 6 -20 11 -22 38 -16 42 8 47 15
38 49 -8 30 -27 38 -64 28z"/>
<path d="M6315 6032 c-27 -26 -86 -80 -130 -120 l-80 -73 52 4 c36 3 62 12 82
28 164 132 237 193 239 200 2 5 -23 9 -55 9 -55 0 -60 -3 -108 -48z"/>
<path d="M2760 6002 c0 -26 -4 -31 -35 -36 -30 -6 -35 -11 -35 -36 0 -35 12
-43 50 -35 25 5 30 12 30 36 0 26 3 29 31 29 28 0 30 2 27 33 -3 28 -7 32 -35
35 -31 3 -33 1 -33 -26z"/>
<path d="M3063 5830 c-53 -11 -83 -27 -83 -44 0 -7 16 -31 35 -53 19 -22 39
-53 45 -68 6 -16 10 -225 10 -570 0 -299 3 -550 6 -559 3 -9 12 -16 18 -16 19
0 193 -87 251 -125 90 -60 85 -78 85 273 0 182 4 322 11 345 19 71 101 90 143
34 20 -28 21 -41 26 -452 l5 -424 46 -48 c26 -26 72 -83 103 -125 31 -43 61
-78 67 -78 7 0 9 220 6 658 -3 572 -6 666 -20 725 -68 276 -226 451 -462 512
-73 19 -235 27 -292 15z"/>
<path d="M5305 5826 c-263 -51 -434 -219 -507 -496 -22 -83 -22 -100 -25 -747
-3 -422 0 -663 6 -663 5 0 33 33 61 73 29 39 76 96 104 125 l51 53 5 429 5
428 24 26 c33 35 83 35 116 1 l25 -24 0 -320 c0 -176 3 -326 6 -335 9 -23 37
-20 69 7 16 12 87 51 159 87 l131 66 5 570 5 569 44 52 c26 31 41 58 38 67
-14 36 -204 55 -322 32z"/>
<path d="M6209 5800 c-20 -11 -39 -26 -43 -35 -3 -10 15 -53 47 -108 l53 -92
40 3 c81 7 161 85 204 197 10 26 10 26 -41 23 l-50 -3 -24 -59 c-41 -100 -46
-100 -98 -10 -34 58 -43 82 -35 91 16 19 -10 16 -53 -7z"/>
<path d="M2657 5434 c-3 -3 0 -18 6 -33 8 -18 13 -154 17 -431 l5 -405 108 -3
108 -3 -3 363 c-3 352 -4 364 -25 404 -28 52 -72 90 -121 104 -41 11 -86 13
-95 4z"/>
<path d="M5845 5425 c-49 -17 -107 -80 -123 -133 -8 -27 -12 -148 -12 -386 l0
-347 108 3 107 3 6 405 c4 223 10 420 14 438 7 31 7 32 -26 32 -19 -1 -52 -7
-74 -15z"/>
<path d="M2610 4393 c-204 -34 -405 -153 -516 -304 -49 -68 -41 -74 78 -61
225 25 417 -40 647 -215 147 -114 288 -273 365 -415 21 -36 43 -71 50 -78 9
-7 50 -10 112 -8 l99 3 3 27 c4 32 -65 176 -134 278 -83 124 -245 290 -346
354 -63 40 -78 60 -78 105 0 22 7 35 26 48 65 42 211 -33 370 -192 111 -111
192 -231 291 -435 41 -85 78 -162 82 -170 7 -12 30 -15 112 -15 104 0 104 0
107 25 7 65 -159 415 -276 580 -37 52 -110 138 -162 191 -206 207 -409 291
-694 288 -61 -1 -122 -4 -136 -6z"/>
<path d="M5663 4386 c-270 -52 -489 -214 -684 -509 -123 -186 -256 -476 -247
-538 3 -23 6 -24 104 -27 l101 -3 86 173 c113 230 187 341 306 458 115 114
207 176 283 192 49 10 59 9 82 -5 18 -12 26 -26 26 -46 0 -48 -9 -60 -84 -109
-175 -115 -378 -367 -462 -572 -34 -85 -29 -90 98 -90 l99 0 27 46 c120 203
246 348 407 469 220 165 413 228 622 203 115 -13 129 -9 109 29 -25 47 -115
141 -179 187 -83 58 -170 101 -259 127 -95 27 -328 35 -435 15z"/>
<path d="M1928 3878 c-23 -18 -118 -179 -118 -200 0 -23 11 -25 103 -16 154
14 330 -17 472 -82 135 -62 306 -214 437 -387 41 -55 77 -93 87 -93 19 0 149
104 158 126 8 22 -6 48 -90 161 -92 124 -199 238 -281 300 -114 86 -324 171
-480 192 -107 15 -268 14 -288 -1z"/>
<path d="M6380 3878 c-91 -13 -258 -70 -364 -126 -75 -39 -110 -66 -202 -157
-104 -104 -220 -246 -261 -322 -13 -25 -15 -37 -7 -51 19 -30 134 -122 153
-122 12 0 45 35 92 97 134 179 297 322 443 389 131 60 317 90 461 75 96 -10
109 -6 100 26 -7 29 -102 185 -119 195 -15 10 -216 8 -296 -4z"/>
<path d="M4209 3147 c-150 -80 -141 -296 16 -368 100 -46 217 1 266 106 27 58
24 113 -9 176 -51 98 -175 137 -273 86z"/>
<path d="M3425 3140 c-165 -12 -275 -68 -405 -207 -120 -129 -186 -291 -197
-489 -5 -94 -4 -103 16 -123 l21 -21 583 2 582 3 0 210 0 210 -395 5 c-217 3
-401 9 -407 13 -23 14 -14 42 25 79 72 71 79 72 447 78 l330 5 3 114 c2 85 -1
117 -10 123 -15 9 -449 8 -593 -2z"/>
<path d="M4592 3142 c-9 -6 -12 -39 -10 -123 l3 -114 325 -6 c364 -6 378 -8
447 -75 44 -41 53 -66 31 -81 -7 -4 -191 -10 -408 -13 l-395 -5 0 -210 0 -210
582 -3 c677 -3 623 -11 623 102 0 151 -57 335 -139 453 -90 128 -213 223 -341
264 -58 18 -99 21 -385 25 -183 3 -325 2 -333 -4z"/>
<path d="M4284 2532 c-6 -4 -38 -47 -71 -97 -33 -49 -97 -137 -142 -194 -59
-75 -79 -107 -71 -116 6 -7 35 -15 66 -18 77 -8 135 -45 182 -115 20 -31 45
-58 54 -60 12 -2 29 14 51 50 55 85 105 117 197 127 41 4 56 10 58 23 2 10
-29 57 -71 110 -41 51 -100 131 -132 178 -83 123 -92 132 -121 112z"/>
</g>
</svg>
